<svg width="296" height="44" viewBox="0 0 296 44" fill="none" xmlns="http://www.w3.org/2000/svg">
<path d="M65.6328 13.128C69.7863 13.128 72.5075 16.3505 72.5075 20.8977V33H65.8476V21.7213C65.8476 19.6804 65.1315 18.7136 63.6993 18.7136C61.8732 18.7136 60.9423 19.9668 60.9423 22.4016V33H54.4615V21.7213C54.4615 19.752 53.7096 18.7136 52.3132 18.7136C50.5229 18.7136 49.5204 20.0026 49.5204 22.4016V33H42.8605V13.665H47.551L48.482 15.7776C49.8784 14.1305 51.9193 13.128 54.1393 13.128C56.5024 13.128 58.4717 14.1663 59.6891 15.9566C61.0855 14.2021 63.2338 13.128 65.6328 13.128ZM96.4059 23.1535C96.4059 23.7622 96.3701 24.3351 96.2985 24.9438H81.9405C82.3702 27.1637 83.7666 28.3095 85.8791 28.3095C87.4188 28.3095 88.7436 27.6292 89.3523 26.4834H96.0121C94.6515 30.8875 90.7129 33.6445 85.8791 33.6445C79.828 33.6445 75.3881 29.2404 75.3881 23.3325C75.3881 17.4246 79.7922 13.0563 85.8791 13.0563C92.1093 13.0563 96.4059 17.4962 96.4059 23.1535ZM85.8791 18.2839C83.9456 18.2839 82.585 19.3223 82.0479 21.2558H89.8535C89.2807 19.3223 87.8842 18.2839 85.8791 18.2839ZM110.249 13.5934H112.04V19.6804H109.426C107.098 19.6804 106.096 20.7187 106.096 23.1893V33H99.436V13.665H103.912L104.95 15.8134C106.311 14.2379 107.958 13.5934 110.249 13.5934ZM129.838 13.665H134.815V33H129.659L129.086 31.6394C127.511 32.9284 125.505 33.6445 123.25 33.6445C117.342 33.6445 113.117 29.3478 113.117 23.3325C113.117 17.353 117.342 13.0922 123.25 13.0922C125.541 13.0922 127.582 13.8441 129.158 15.1689L129.838 13.665ZM124.145 27.7724C126.651 27.7724 128.477 25.8747 128.477 23.3325C128.477 20.8261 126.651 18.9643 124.145 18.9643C121.638 18.9643 119.812 20.8261 119.812 23.3325C119.812 25.8747 121.638 27.7724 124.145 27.7724ZM139.483 11.2661V5.60881H146.071V11.2661H139.483ZM135.401 40.3759V34.5038H137.049C138.624 34.5038 139.447 33.6087 139.447 31.9616V13.665H146.107V32.4987C146.107 37.4399 143.064 40.3759 137.908 40.3759H135.401ZM159.586 33.6445C153.892 33.6445 150.061 30.1356 150.061 24.7289V13.665H156.721V24.4425C156.721 26.4834 157.831 27.665 159.586 27.665C161.376 27.665 162.45 26.4476 162.45 24.4425V13.665H169.11V24.7289C169.11 30.1356 165.314 33.6445 159.586 33.6445ZM192.697 33H184.82L179.986 24.8364V33H173.326V6.68297H179.986V21.2558L184.605 13.665H192.089L186.037 22.9029L192.697 33ZM194.154 33V26.8415H200.635V33H194.154ZM214.14 33.6445C207.945 33.6445 203.47 29.312 203.47 23.3325C203.47 17.353 207.91 13.0922 214.175 13.0922C219.618 13.0922 223.664 16.4937 224.416 21.6497H217.899C217.362 20.0742 215.894 19.0359 214.14 19.0359C211.812 19.0359 210.129 20.8261 210.129 23.3325C210.129 25.8747 211.812 27.7008 214.14 27.7008C215.93 27.7008 217.398 26.5908 217.935 24.8722H224.487C223.736 30.0998 219.582 33.6445 214.14 33.6445ZM237.046 33.6445C230.744 33.6445 226.233 29.312 226.233 23.3325C226.233 17.353 230.744 13.0563 237.046 13.0563C243.348 13.0563 247.895 17.353 247.895 23.3325C247.895 29.312 243.348 33.6445 237.046 33.6445ZM237.046 27.665C239.481 27.665 241.235 25.9105 241.235 23.3683C241.235 20.8261 239.481 19.0359 237.046 19.0359C234.647 19.0359 232.892 20.7903 232.892 23.3683C232.892 25.9105 234.647 27.665 237.046 27.665ZM273.752 13.128C277.906 13.128 280.627 16.3505 280.627 20.8977V33H273.967V21.7213C273.967 19.6804 273.251 18.7136 271.819 18.7136C269.993 18.7136 269.062 19.9668 269.062 22.4016V33H262.581V21.7213C262.581 19.752 261.829 18.7136 260.433 18.7136C258.642 18.7136 257.64 20.0026 257.64 22.4016V33H250.98V13.665H255.67L256.601 15.7776C257.998 14.1305 260.039 13.128 262.259 13.128C264.622 13.128 266.591 14.1663 267.808 15.9566C269.205 14.2021 271.353 13.128 273.752 13.128Z" fill="black"/>
<path d="M10.5101 30.4801C10.0976 31.1901 10.0219 31.3619 9.92333 31.5148C9.43928 32.2692 9.00043 33.1263 8.42187 33.8109C7.53678 34.8571 5.92192 35.3107 4.59469 35.1439C3.17213 34.9647 1.86545 34.1355 1.01487 32.994C-0.0107518 31.6167 -0.388786 29.5917 0.493842 28.05C1.04774 27.0827 1.61233 26.1212 2.17198 25.1572C2.29443 24.946 2.4325 24.7093 2.57632 24.4636L3.10721 23.5555C3.38663 23.1125 3.73918 23.2695 4.0186 23.6278C4.57661 24.268 4.72454 24.4422 5.31624 24.9986C5.69839 25.3939 5.6047 25.4383 5.36308 25.8253L5.03025 26.3455L3.39484 29.0041C2.02817 31.2156 5.30145 33.2389 6.66812 31.0274L8.08247 28.6746C8.3512 28.1946 8.65445 27.75 9.03495 28.0705L10.3819 29.3098C10.9769 29.7585 10.6589 30.1325 10.5101 30.4801Z" fill="black"/>
<path d="M31.3136 24.8342C31.0136 25.269 30.9183 25.4177 31.2051 25.8311L31.4533 26.2223L33.3599 28.9146C34.8474 31.0061 31.7664 33.2192 30.2789 31.1277L21.1938 17.567C20.8946 17.156 20.5963 16.4805 20.1262 17.156L19.0143 18.6345C18.5467 19.3815 18.7111 19.407 19.1187 19.9814C20.8223 22.4756 26.6366 31.1704 27.1182 31.8254C27.6425 32.5379 28.1299 33.3548 28.7429 33.9917C29.6806 34.9664 31.2955 35.3066 32.5874 35.0543C33.9721 34.7839 35.2007 33.8791 35.9609 32.6965C36.8781 31.2699 37.1147 29.2466 36.1475 27.7829C35.5402 26.865 34.9222 25.9536 34.3099 25.0389L33.4881 23.8998C33.0944 23.3312 32.8701 23.0131 32.2759 23.7108C32.2759 23.7108 31.482 24.591 31.3136 24.8342Z" fill="black"/>
<path d="M17.0346 11.8062L16.4988 12.4941L15.774 13.3455C15.2382 13.9487 15.1519 13.5756 14.1805 13.0989C14.1616 13.0924 14.1419 13.085 14.123 13.0784C9.05237 11.3107 4.86769 18.7464 8.9858 22.0485L17.4012 29.3848L17.9477 29.8606L18.3923 29.4522L21.147 26.9227C21.364 26.7213 21.8061 26.4468 22.1956 26.8808L23.4546 28.5572C23.7883 28.932 23.8319 29.3191 23.3429 29.693L18.9051 33.5752C18.0816 34.1497 17.5261 34.2458 16.6837 33.5752L7.07426 24.8213C6.09302 24.0085 5.25148 23.019 4.68196 21.8759C3.87823 20.2619 3.67607 18.4128 4.05574 16.6541C4.42638 14.9382 5.3164 13.3455 6.53926 12.0906C7.76294 10.8348 9.33836 9.90866 11.0633 9.55446C12.7596 9.20601 14.8133 9.39256 16.3961 10.3492C16.5029 10.4141 16.9188 10.7034 16.9188 10.7034C17.4209 11.1241 17.3823 11.3608 17.0346 11.8062Z" fill="black"/>
<path d="M28.6969 25.5002C30.158 24.3111 31.4302 23.1655 32.2455 21.4158C32.7846 20.2587 33.0648 18.7819 32.9062 17.5155C32.6079 15.1347 31.4269 13.0391 29.6387 11.4998C27.8726 9.97947 25.5353 9.12068 23.1981 9.45515C19.6462 9.96468 17.5284 12.8147 15.7056 15.6031C14.6019 17.2911 13.1884 19.4484 12.0132 21.2449C11.7231 21.7059 11.7494 21.9903 12.0971 22.3305L13.287 23.3504C14.0176 23.9265 14.4162 23.2707 14.62 22.9962L14.8781 22.6346C16.465 20.1083 18.1472 17.8894 19.9421 15.3451C21.0466 13.7795 22.3574 12.6783 24.3865 12.7703C26.0999 12.8476 27.3885 13.7795 28.3492 15.046C29.2738 16.2655 29.5064 17.9198 29.4176 19.1378C29.3173 20.5168 28.5103 21.2876 27.5504 22.3264C27.3861 22.5047 27.1781 22.679 26.9842 22.8277C26.5314 23.1959 26.4098 23.2978 26.8922 24.0103L27.8044 25.3581C28.2325 25.9243 28.4815 25.6153 28.6969 25.5002Z" fill="black"/>
<path d="M286.35 2.44484V4.07427H284.571V9H282.754V4.07427H280.975V2.44484H286.35ZM295.209 9H293.383L292.877 5.2261L291.135 9.01873H290.601L288.869 5.23547L288.363 9H286.528L287.52 2.44484H289.328L290.873 6.01272L292.427 2.44484H294.225L295.209 9Z" fill="black"/>
</svg>
