<svg width="291" height="65" viewBox="0 0 291 65" fill="none" xmlns="http://www.w3.org/2000/svg">
<path d="M98.6066 19.2775C104.819 19.2775 108.889 24.0974 108.889 30.8987V49H98.9279V32.1305C98.9279 29.0779 97.8568 27.6319 95.7146 27.6319C92.9834 27.6319 91.591 29.5063 91.591 33.148V49H81.8977V32.1305C81.8977 29.185 80.7731 27.6319 78.6845 27.6319C76.0068 27.6319 74.5072 29.5599 74.5072 33.148V49H64.5462V20.0808H71.5618L72.9542 23.2405C75.0428 20.777 78.0954 19.2775 81.4157 19.2775C84.9503 19.2775 87.8958 20.8306 89.7166 23.5083C91.8052 20.8841 95.0184 19.2775 98.6066 19.2775ZM144.634 34.2726C144.634 35.1831 144.58 36.0399 144.473 36.9503H122.998C123.641 40.2707 125.729 41.9844 128.889 41.9844C131.192 41.9844 133.173 40.9669 134.084 39.2532H144.045C142.01 45.8403 136.119 49.964 128.889 49.964C119.838 49.964 113.198 43.3768 113.198 34.5404C113.198 25.704 119.785 19.1704 128.889 19.1704C138.207 19.1704 144.634 25.8111 144.634 34.2726ZM128.889 26.9893C125.997 26.9893 123.962 28.5424 123.159 31.4343H134.833C133.976 28.5424 131.888 26.9893 128.889 26.9893ZM165.339 19.9737H168.017V29.0779H164.107C160.626 29.0779 159.127 30.631 159.127 34.3262V49H149.166V20.0808H155.86L157.413 23.2941C159.448 20.9377 161.912 19.9737 165.339 19.9737ZM194.638 20.0808H202.082V49H194.37L193.513 46.9649C191.157 48.8929 188.158 49.964 184.784 49.964C175.947 49.964 169.628 43.5375 169.628 34.5404C169.628 25.5969 175.947 19.224 184.784 19.224C188.211 19.224 191.264 20.3486 193.62 22.3301L194.638 20.0808ZM186.123 41.1811C189.871 41.1811 192.603 38.3427 192.603 34.5404C192.603 30.7916 189.871 28.0068 186.123 28.0068C182.374 28.0068 179.643 30.7916 179.643 34.5404C179.643 38.3427 182.374 41.1811 186.123 41.1811ZM209.064 16.4927V8.03116H218.918V16.4927H209.064ZM202.959 60.0321V51.2493H205.423C207.779 51.2493 209.011 49.9104 209.011 47.4469V20.0808H218.972V48.2502C218.972 55.6407 214.42 60.0321 206.708 60.0321H202.959ZM239.131 49.964C230.616 49.964 224.886 44.7157 224.886 36.629V20.0808H234.847V36.2006C234.847 39.2532 236.507 41.0204 239.131 41.0204C241.809 41.0204 243.415 39.1996 243.415 36.2006V20.0808H253.376V36.629C253.376 44.7157 247.7 49.964 239.131 49.964ZM288.656 49H276.874L269.644 36.7897V49H259.683V9.63778H269.644V31.4343L276.553 20.0808H287.746L278.695 33.8978L288.656 49Z" fill="black"/>
<path d="M15.7199 45.5886C15.1028 46.6506 14.9898 46.9075 14.8423 47.1361C14.1183 48.2645 13.4619 49.5465 12.5965 50.5704C11.2727 52.1352 8.85738 52.8137 6.87225 52.5642C4.74454 52.2962 2.79014 51.056 1.51794 49.3486C-0.0160815 47.2885 -0.581504 44.2598 0.738636 41.9539C1.5671 40.5071 2.41155 39.069 3.24862 37.6272C3.43177 37.3113 3.63827 36.9572 3.85338 36.5897L4.64743 35.2315C5.06535 34.5689 5.59267 34.8037 6.01059 35.3396C6.84521 36.2972 7.06646 36.5578 7.95147 37.3899C8.52304 37.9812 8.38291 38.0475 8.02153 38.6265L7.52372 39.4045L5.07765 43.3809C3.03352 46.6887 7.92935 49.7149 9.97347 46.4072L12.0889 42.8881C12.4908 42.1702 12.9444 41.5052 13.5135 41.9846L15.5281 43.8382C16.4181 44.5093 15.9424 45.0686 15.7199 45.5886Z" fill="black"/>
<path d="M46.8354 37.1438C46.3867 37.7941 46.2441 38.0166 46.6731 38.6348L47.0443 39.2199L49.896 43.2467C52.1208 46.375 47.5126 49.6852 45.2878 46.5569L31.6992 26.2742C31.2518 25.6596 30.8056 24.6492 30.1025 25.6596L28.4394 27.8709C27.74 28.9882 27.9859 29.0263 28.5955 29.8855C31.1436 33.6161 39.8401 46.6208 40.5604 47.6005C41.3446 48.6662 42.0735 49.888 42.9905 50.8406C44.393 52.2984 46.8083 52.8073 48.7406 52.4299C50.8118 52.0255 52.6494 50.6722 53.7864 48.9034C55.1581 46.7696 55.5121 43.7433 54.0654 41.5541C53.157 40.1811 52.2327 38.818 51.317 37.4499L50.0878 35.7463C49.499 34.8957 49.1634 34.42 48.2747 35.4635C48.2747 35.4635 47.0873 36.78 46.8354 37.1438Z" fill="black"/>
<path d="M25.4784 17.6579L24.677 18.6868L23.5929 19.9602C22.7914 20.8624 22.6624 20.3044 21.2095 19.5914C21.1812 19.5816 21.1517 19.5705 21.1234 19.5607C13.5394 16.9167 7.2804 28.0384 13.4398 32.9772L26.0266 43.9501L26.8441 44.6618L27.509 44.0509L31.6293 40.2675C31.9538 39.9663 32.6151 39.5558 33.1977 40.2048L35.0808 42.7123C35.5798 43.2728 35.645 43.8518 34.9136 44.4111L28.276 50.2177C27.0444 51.0769 26.2135 51.2207 24.9536 50.2177L10.5808 37.1245C9.11311 35.9088 7.85443 34.4289 7.00261 32.7191C5.80047 30.305 5.49809 27.5393 6.06597 24.9089C6.62033 22.3423 7.95154 19.9602 9.78056 18.0832C11.6108 16.205 13.9671 14.8197 16.5472 14.29C19.0842 13.7688 22.156 14.0478 24.5234 15.4786C24.6832 15.5757 25.3051 16.0084 25.3051 16.0084C26.0561 16.6377 25.9984 16.9917 25.4784 17.6579Z" fill="black"/>
<path d="M42.9218 38.1397C45.1073 36.3611 47.0101 34.6476 48.2294 32.0307C49.0358 30.3 49.4549 28.0911 49.2177 26.197C48.7715 22.636 47.0052 19.5016 44.3305 17.1994C41.6889 14.9254 38.1932 13.6409 34.6974 14.1412C29.3848 14.9033 26.2172 19.1661 23.4909 23.3367C21.8401 25.8614 19.7259 29.088 17.9682 31.775C17.5343 32.4646 17.5736 32.8899 18.0936 33.3987L19.8734 34.9242C20.9662 35.7858 21.5623 34.8049 21.8672 34.3944L22.2531 33.8535C24.6267 30.075 27.1428 26.7563 29.8273 22.9507C31.4794 20.6091 33.4399 18.962 36.4748 19.0997C39.0376 19.2152 40.965 20.6091 42.4019 22.5033C43.7847 24.3274 44.1326 26.8017 43.9998 28.6234C43.8499 30.6859 42.6428 31.8389 41.2071 33.3926C40.9613 33.6593 40.6503 33.9199 40.3602 34.1424C39.6829 34.6931 39.501 34.8455 40.2225 35.9112L41.5869 37.9271C42.2273 38.774 42.5998 38.3118 42.9218 38.1397Z" fill="black"/>
</svg>
