<svg width="443" height="65" viewBox="0 0 443 65" fill="none" xmlns="http://www.w3.org/2000/svg">
<path d="M98.1665 19.2775C104.379 19.2775 108.449 24.0974 108.449 30.8987V49H98.4878V32.1305C98.4878 29.0779 97.4167 27.6319 95.2746 27.6319C92.5433 27.6319 91.1509 29.5063 91.1509 33.148V49H81.4576V32.1305C81.4576 29.185 80.333 27.6319 78.2444 27.6319C75.5667 27.6319 74.0672 29.5599 74.0672 33.148V49H64.1061V20.0808H71.1217L72.5141 23.2405C74.6027 20.777 77.6553 19.2775 80.9757 19.2775C84.5102 19.2775 87.4557 20.8306 89.2765 23.5083C91.3651 20.8841 94.5784 19.2775 98.1665 19.2775ZM144.194 34.2726C144.194 35.1831 144.14 36.0399 144.033 36.9503H122.558C123.201 40.2707 125.289 41.9844 128.449 41.9844C130.752 41.9844 132.733 40.9669 133.644 39.2532H143.605C141.57 45.8403 135.679 49.964 128.449 49.964C119.398 49.964 112.757 43.3768 112.757 34.5404C112.757 25.704 119.345 19.1704 128.449 19.1704C137.767 19.1704 144.194 25.8111 144.194 34.2726ZM128.449 26.9893C125.557 26.9893 123.522 28.5424 122.719 31.4343H134.393C133.536 28.5424 131.448 26.9893 128.449 26.9893ZM164.899 19.9737H167.577V29.0779H163.667C160.186 29.0779 158.687 30.631 158.687 34.3262V49H148.726V20.0808H155.42L156.973 23.2941C159.008 20.9377 161.472 19.9737 164.899 19.9737ZM194.198 20.0808H201.642V49H193.93L193.073 46.9649C190.717 48.8929 187.718 49.964 184.344 49.964C175.507 49.964 169.188 43.5375 169.188 34.5404C169.188 25.5969 175.507 19.224 184.344 19.224C187.771 19.224 190.824 20.3486 193.18 22.3301L194.198 20.0808ZM185.683 41.1811C189.431 41.1811 192.163 38.3427 192.163 34.5404C192.163 30.7916 189.431 28.0068 185.683 28.0068C181.934 28.0068 179.203 30.7916 179.203 34.5404C179.203 38.3427 181.934 41.1811 185.683 41.1811ZM208.624 16.4927V8.03116H218.478V16.4927H208.624ZM202.519 60.0321V51.2493H204.983C207.339 51.2493 208.571 49.9104 208.571 47.4469V20.0808H218.532V48.2502C218.532 55.6407 213.98 60.0321 206.268 60.0321H202.519ZM238.691 49.964C230.176 49.964 224.446 44.7157 224.446 36.629V20.0808H234.407V36.2006C234.407 39.2532 236.067 41.0204 238.691 41.0204C241.369 41.0204 242.975 39.1996 242.975 36.2006V20.0808H252.936V36.629C252.936 44.7157 247.26 49.964 238.691 49.964ZM288.216 49H276.434L269.204 36.7897V49H259.243V9.63778H269.204V31.4343L276.113 20.0808H287.306L278.255 33.8978L288.216 49ZM290.395 49V39.7887H300.088V49H290.395ZM320.287 49.964C311.022 49.964 304.328 43.4839 304.328 34.5404C304.328 25.5969 310.969 19.224 320.341 19.224C328.481 19.224 334.533 24.3116 335.657 32.0234H325.91C325.107 29.667 322.911 28.1139 320.287 28.1139C316.806 28.1139 314.289 30.7916 314.289 34.5404C314.289 38.3427 316.806 41.074 320.287 41.074C322.965 41.074 325.161 39.4138 325.964 36.8432H335.764C334.64 44.6621 328.428 49.964 320.287 49.964ZM354.548 49.964C345.123 49.964 338.375 43.4839 338.375 34.5404C338.375 25.5969 345.123 19.1704 354.548 19.1704C363.974 19.1704 370.775 25.5969 370.775 34.5404C370.775 43.4839 363.974 49.964 354.548 49.964ZM354.548 41.0204C358.19 41.0204 360.814 38.3963 360.814 34.594C360.814 30.7916 358.19 28.1139 354.548 28.1139C350.96 28.1139 348.336 30.7381 348.336 34.594C348.336 38.3963 350.96 41.0204 354.548 41.0204ZM409.449 19.2775C415.662 19.2775 419.732 24.0974 419.732 30.8987V49H409.771V32.1305C409.771 29.0779 408.7 27.6319 406.557 27.6319C403.826 27.6319 402.434 29.5063 402.434 33.148V49H392.74V32.1305C392.74 29.185 391.616 27.6319 389.527 27.6319C386.85 27.6319 385.35 29.5599 385.35 33.148V49H375.389V20.0808H382.405L383.797 23.2405C385.886 20.777 388.938 19.2775 392.258 19.2775C395.793 19.2775 398.739 20.8306 400.559 23.5083C402.648 20.8841 405.861 19.2775 409.449 19.2775Z" fill="black"/>
<path d="M15.7199 45.5886C15.1028 46.6506 14.9898 46.9075 14.8423 47.1361C14.1183 48.2645 13.4619 49.5465 12.5965 50.5704C11.2727 52.1352 8.85738 52.8137 6.87225 52.5642C4.74454 52.2962 2.79014 51.056 1.51794 49.3486C-0.0160815 47.2885 -0.581504 44.2598 0.738636 41.9539C1.5671 40.5071 2.41155 39.069 3.24862 37.6272C3.43177 37.3113 3.63827 36.9572 3.85338 36.5897L4.64743 35.2315C5.06535 34.5689 5.59267 34.8037 6.01059 35.3396C6.84521 36.2972 7.06646 36.5578 7.95147 37.3899C8.52304 37.9812 8.38291 38.0475 8.02153 38.6265L7.52372 39.4045L5.07765 43.3809C3.03352 46.6887 7.92935 49.7149 9.97347 46.4072L12.0889 42.8881C12.4908 42.1702 12.9444 41.5052 13.5135 41.9846L15.5281 43.8382C16.4181 44.5093 15.9424 45.0686 15.7199 45.5886Z" fill="black"/>
<path d="M46.8354 37.1438C46.3867 37.7941 46.2441 38.0166 46.6731 38.6348L47.0443 39.2199L49.896 43.2467C52.1208 46.375 47.5126 49.6852 45.2878 46.5569L31.6992 26.2742C31.2518 25.6596 30.8056 24.6492 30.1025 25.6596L28.4394 27.8709C27.74 28.9882 27.9859 29.0263 28.5955 29.8855C31.1436 33.6161 39.8401 46.6208 40.5604 47.6005C41.3446 48.6662 42.0735 49.888 42.9905 50.8406C44.393 52.2984 46.8083 52.8073 48.7406 52.4299C50.8118 52.0255 52.6494 50.6722 53.7864 48.9034C55.1581 46.7696 55.5121 43.7433 54.0654 41.5541C53.157 40.1811 52.2327 38.818 51.317 37.4499L50.0878 35.7463C49.499 34.8957 49.1634 34.42 48.2747 35.4635C48.2747 35.4635 47.0873 36.78 46.8354 37.1438Z" fill="black"/>
<path d="M25.4784 17.6579L24.677 18.6868L23.5929 19.9602C22.7914 20.8624 22.6624 20.3044 21.2095 19.5914C21.1812 19.5816 21.1517 19.5705 21.1234 19.5607C13.5394 16.9167 7.2804 28.0384 13.4398 32.9772L26.0266 43.9501L26.8441 44.6618L27.509 44.0509L31.6293 40.2675C31.9538 39.9663 32.6151 39.5558 33.1977 40.2048L35.0808 42.7123C35.5798 43.2728 35.645 43.8518 34.9136 44.4111L28.276 50.2177C27.0444 51.0769 26.2135 51.2207 24.9536 50.2177L10.5808 37.1245C9.11311 35.9088 7.85443 34.4289 7.00261 32.7191C5.80047 30.305 5.49809 27.5393 6.06597 24.9089C6.62033 22.3423 7.95154 19.9602 9.78056 18.0832C11.6108 16.205 13.9671 14.8197 16.5472 14.29C19.0842 13.7688 22.156 14.0478 24.5234 15.4786C24.6832 15.5757 25.3051 16.0084 25.3051 16.0084C26.0561 16.6377 25.9984 16.9917 25.4784 17.6579Z" fill="black"/>
<path d="M42.9218 38.1397C45.1073 36.3611 47.0101 34.6476 48.2294 32.0307C49.0358 30.3 49.4549 28.0911 49.2177 26.197C48.7715 22.636 47.0052 19.5016 44.3305 17.1994C41.6889 14.9254 38.1932 13.6409 34.6974 14.1412C29.3848 14.9033 26.2172 19.1661 23.4909 23.3367C21.8401 25.8614 19.7259 29.088 17.9682 31.775C17.5343 32.4646 17.5736 32.8899 18.0936 33.3987L19.8734 34.9242C20.9662 35.7858 21.5623 34.8049 21.8672 34.3944L22.2531 33.8535C24.6267 30.075 27.1428 26.7563 29.8273 22.9507C31.4794 20.6091 33.4399 18.962 36.4748 19.0997C39.0376 19.2152 40.965 20.6091 42.4019 22.5033C43.7847 24.3274 44.1326 26.8017 43.9998 28.6234C43.8499 30.6859 42.6428 31.8389 41.2071 33.3926C40.9613 33.6593 40.6503 33.9199 40.3602 34.1424C39.6829 34.6931 39.501 34.8455 40.2225 35.9112L41.5869 37.9271C42.2273 38.774 42.5998 38.3118 42.9218 38.1397Z" fill="black"/>
<path d="M428.292 3.19549V5.63261H425.631V13H422.913V5.63261H420.252V3.19549H428.292ZM441.542 13H438.81L438.054 7.3554L435.449 13.028H434.651L432.059 7.36941L431.303 13H428.558L430.042 3.19549H432.746L435.057 8.53195L437.382 3.19549H440.071L441.542 13Z" fill="black"/>
</svg>
