<svg width="1383" height="308" viewBox="0 0 1383 308" fill="none" xmlns="http://www.w3.org/2000/svg">
<path d="M534.811 232H485.179L471.435 129.429L424.095 232.509H409.587L362.501 129.683L348.757 232H298.871L325.85 53.8362H374.972L416.968 150.808L459.218 53.8362H508.086L534.811 232ZM696.58 162.007C696.58 166.334 696.325 170.406 695.816 174.733H593.754C596.808 190.513 606.734 198.658 621.751 198.658C632.695 198.658 642.112 193.822 646.439 185.677H693.78C684.108 216.983 656.111 236.581 621.751 236.581C578.737 236.581 547.177 205.275 547.177 163.28C547.177 121.284 578.483 90.2325 621.751 90.2325C666.037 90.2325 696.58 121.793 696.58 162.007ZM621.751 127.392C608.007 127.392 598.335 134.773 594.517 148.518H650.003C645.93 134.773 636.004 127.392 621.751 127.392ZM794.983 94.0503H807.709V137.319H789.129C772.586 137.319 765.459 144.7 765.459 162.262V232H718.118V94.5594H749.933L757.314 109.831C766.986 98.6317 778.694 94.0503 794.983 94.0503ZM934.227 94.5594H969.606V232H932.955L928.883 222.328C917.684 231.491 903.431 236.581 887.396 236.581C845.4 236.581 815.367 206.039 815.367 163.28C815.367 120.775 845.4 90.487 887.396 90.487C903.685 90.487 918.193 95.832 929.392 105.249L934.227 94.5594ZM893.759 194.84C911.575 194.84 924.556 181.351 924.556 163.28C924.556 145.463 911.575 132.228 893.759 132.228C875.942 132.228 862.962 145.463 862.962 163.28C862.962 181.351 875.942 194.84 893.759 194.84ZM1002.79 77.5065V37.2924H1049.62V77.5065H1002.79ZM973.776 284.431V242.69H985.483C996.682 242.69 1002.54 236.327 1002.54 224.619V94.5594H1049.88V228.437C1049.88 263.56 1028.24 284.431 991.592 284.431H973.776ZM1145.69 236.581C1105.22 236.581 1077.98 211.638 1077.98 173.206V94.5594H1125.32V171.17C1125.32 185.677 1133.21 194.077 1145.69 194.077C1158.41 194.077 1166.05 185.423 1166.05 171.17V94.5594H1213.39V173.206C1213.39 211.638 1186.41 236.581 1145.69 236.581ZM1381.06 232H1325.06L1290.7 173.97V232H1243.36V44.928H1290.7V148.518L1323.54 94.5594H1376.73L1333.72 160.225L1381.06 232Z" fill="white"/>
<path d="M74.71 216.663C71.7774 221.71 71.24 222.931 70.539 224.018C67.0982 229.381 63.9787 235.474 59.8661 240.34C53.5745 247.776 42.0954 251.001 32.6609 249.815C22.5488 248.542 13.2604 242.647 7.21411 234.533C-0.0764284 224.742 -2.76364 210.348 3.51043 199.389C7.44779 192.513 11.4611 185.678 15.4393 178.826C16.3098 177.324 17.2912 175.642 18.3135 173.895L22.0873 167.44C24.0735 164.291 26.5796 165.407 28.5658 167.954C32.5324 172.505 33.5839 173.743 37.79 177.698C40.5064 180.508 39.8404 180.824 38.123 183.575L35.757 187.273L24.1319 206.171C14.417 221.891 37.6848 236.274 47.3997 220.554L57.4534 203.829C59.3637 200.417 61.5193 197.257 64.224 199.535L73.7987 208.344C78.0282 211.534 75.7674 214.192 74.71 216.663Z" fill="white"/>
<path d="M222.588 176.53C220.456 179.62 219.779 180.677 221.817 183.616L223.582 186.397L237.135 205.534C247.708 220.402 225.807 236.134 215.234 221.266L150.653 124.871C148.526 121.95 146.406 117.148 143.064 121.95L135.16 132.459C131.836 137.77 133.005 137.951 135.902 142.034C148.012 159.764 189.343 221.57 192.766 226.226C196.493 231.291 199.957 237.097 204.315 241.625C210.981 248.553 222.46 250.972 231.643 249.178C241.487 247.256 250.22 240.824 255.624 232.418C262.143 222.277 263.826 207.894 256.95 197.49C252.633 190.965 248.24 184.486 243.888 177.984L238.046 169.888C235.248 165.845 233.653 163.584 229.429 168.544C229.429 168.544 223.786 174.801 222.588 176.53Z" fill="white"/>
<path d="M121.088 83.92L117.279 88.8096L112.127 94.8616C108.318 99.1495 107.704 96.4973 100.799 93.1091C100.665 93.0624 100.525 93.0098 100.391 92.9631C64.3467 80.3974 34.6004 133.254 63.8736 156.726L123.693 208.876L127.578 212.258L130.739 209.355L150.32 191.374C151.862 189.942 155.005 187.991 157.774 191.076L166.724 202.993C169.096 205.657 169.405 208.408 165.929 211.066L134.384 238.663C128.53 242.746 124.581 243.43 118.593 238.663L50.2856 176.436C43.3105 170.659 37.3285 163.625 33.2802 155.499C27.5669 144.026 26.1298 130.882 28.8287 118.381C31.4634 106.183 37.79 94.8616 46.4826 85.9412C55.181 77.015 66.3797 70.4313 78.6416 67.9135C90.699 65.4366 105.298 66.7627 116.549 73.5625C117.308 74.024 120.264 76.0803 120.264 76.0803C123.834 79.0713 123.559 80.7537 121.088 83.92Z" fill="white"/>
<path d="M203.989 181.262C214.376 172.809 223.419 164.665 229.214 152.228C233.046 144.003 235.038 133.505 233.91 124.503C231.79 107.579 223.395 92.6828 210.684 81.7412C198.13 70.9339 181.516 64.8292 164.902 67.2068C139.653 70.8287 124.599 91.088 111.642 110.909C103.797 122.908 93.7487 138.243 85.3949 151.013C83.3328 154.29 83.5197 156.311 85.9908 158.73L94.4497 165.98C99.643 170.075 102.476 165.413 103.925 163.462L105.759 160.891C117.04 142.934 128.998 127.161 141.756 109.075C149.608 97.9463 158.925 90.1183 173.349 90.7725C185.529 91.3217 194.689 97.9462 201.518 106.948C208.09 115.618 209.743 127.377 209.112 136.035C208.399 145.837 202.663 151.317 195.84 158.701C194.671 159.968 193.193 161.207 191.815 162.264C188.596 164.881 187.731 165.606 191.16 170.671L197.645 180.251C200.688 184.276 202.458 182.08 203.989 181.262Z" fill="white"/>
</svg>
