<svg width="207" height="31" viewBox="0 0 207 31" fill="none" xmlns="http://www.w3.org/2000/svg">
<path d="M45.9228 9.09568C48.8289 9.09568 50.7329 11.3504 50.7329 14.5321V23H46.0731V15.1084C46.0731 13.6803 45.5721 13.0039 44.5699 13.0039C43.2923 13.0039 42.6409 13.8808 42.6409 15.5844V23H38.1063V15.1084C38.1063 13.7305 37.5802 13.0039 36.6031 13.0039C35.3505 13.0039 34.649 13.9058 34.649 15.5844V23H29.9892V9.47147H33.2711L33.9225 10.9496C34.8996 9.79716 36.3276 9.09568 37.8808 9.09568C39.5343 9.09568 40.9122 9.82221 41.764 11.0749C42.7411 9.84726 44.2443 9.09568 45.9228 9.09568ZM67.4545 16.1105C67.4545 16.5364 67.4295 16.9372 67.3794 17.3631H57.3332C57.6338 18.9164 58.6109 19.7181 60.089 19.7181C61.1663 19.7181 62.0932 19.2421 62.5191 18.4404H67.179C66.2269 21.5219 63.4711 23.451 60.089 23.451C55.8551 23.451 52.7485 20.3695 52.7485 16.2357C52.7485 12.102 55.83 9.04557 60.089 9.04557C64.4482 9.04557 67.4545 12.1521 67.4545 16.1105ZM60.089 12.7033C58.7361 12.7033 57.7841 13.4298 57.4083 14.7827H62.8699C62.469 13.4298 61.492 12.7033 60.089 12.7033ZM77.1406 9.42136H78.3932V13.6803H76.5644C74.9359 13.6803 74.2345 14.4069 74.2345 16.1355V23H69.5746V9.47147H72.7062L73.4328 10.9746C74.3848 9.87231 75.5372 9.42136 77.1406 9.42136ZM90.8466 9.47147H94.329V23H90.7214L90.3205 22.048C89.2182 22.9499 87.8152 23.451 86.2369 23.451C82.1032 23.451 79.147 20.4446 79.147 16.2357C79.147 12.0519 82.1032 9.07062 86.2369 9.07062C87.8403 9.07062 89.2683 9.59673 90.3706 10.5237L90.8466 9.47147ZM86.8632 19.3423C88.6169 19.3423 89.8946 18.0145 89.8946 16.2357C89.8946 14.482 88.6169 13.1793 86.8632 13.1793C85.1095 13.1793 83.8318 14.482 83.8318 16.2357C83.8318 18.0145 85.1095 19.3423 86.8632 19.3423ZM97.5954 7.79293V3.83458H102.205V7.79293H97.5954ZM94.7394 28.1609V24.0522H95.8918C96.9942 24.0522 97.5704 23.4259 97.5704 22.2735V9.47147H102.23V22.6493C102.23 26.1066 100.101 28.1609 96.4931 28.1609H94.7394ZM111.661 23.451C107.677 23.451 104.997 20.9958 104.997 17.2128V9.47147H109.657V17.0124C109.657 18.4404 110.433 19.2671 111.661 19.2671C112.913 19.2671 113.665 18.4153 113.665 17.0124V9.47147H118.325V17.2128C118.325 20.9958 115.669 23.451 111.661 23.451ZM134.829 23H129.317L125.935 17.288V23H121.275V4.58617H125.935V14.7827L129.167 9.47147H134.403L130.169 15.9351L134.829 23ZM135.848 23V18.6909H140.383V23H135.848ZM149.832 23.451C145.498 23.451 142.366 20.4196 142.366 16.2357C142.366 12.0519 145.473 9.07062 149.857 9.07062C153.665 9.07062 156.496 11.4506 157.022 15.0583H152.463C152.087 13.9559 151.06 13.2294 149.832 13.2294C148.204 13.2294 147.026 14.482 147.026 16.2357C147.026 18.0145 148.204 19.2922 149.832 19.2922C151.085 19.2922 152.112 18.5155 152.488 17.313H157.072C156.546 20.9707 153.64 23.451 149.832 23.451ZM165.859 23.451C161.45 23.451 158.293 20.4196 158.293 16.2357C158.293 12.0519 161.45 9.04557 165.859 9.04557C170.269 9.04557 173.45 12.0519 173.45 16.2357C173.45 20.4196 170.269 23.451 165.859 23.451ZM165.859 19.2671C167.563 19.2671 168.79 18.0395 168.79 16.2608C168.79 14.482 167.563 13.2294 165.859 13.2294C164.181 13.2294 162.953 14.457 162.953 16.2608C162.953 18.0395 164.181 19.2671 165.859 19.2671ZM191.542 9.09568C194.449 9.09568 196.353 11.3504 196.353 14.5321V23H191.693V15.1084C191.693 13.6803 191.192 13.0039 190.19 13.0039C188.912 13.0039 188.26 13.8808 188.26 15.5844V23H183.726V15.1084C183.726 13.7305 183.2 13.0039 182.223 13.0039C180.97 13.0039 180.269 13.9058 180.269 15.5844V23H175.609V9.47147H178.891L179.542 10.9496C180.519 9.79716 181.947 9.09568 183.5 9.09568C185.154 9.09568 186.532 9.82221 187.384 11.0749C188.361 9.84726 189.864 9.09568 191.542 9.09568Z" fill="black"/>
<path d="M7.35384 21.3267C7.06518 21.8235 7.01228 21.9437 6.94328 22.0507C6.6046 22.5785 6.29754 23.1783 5.89272 23.6573C5.27343 24.3893 4.14352 24.7067 3.21487 24.5899C2.21952 24.4646 1.30524 23.8844 0.710098 23.0857C-0.00752299 22.122 -0.27203 20.7051 0.345538 19.6264C0.733099 18.9496 1.12814 18.2768 1.51972 17.6023C1.6054 17.4546 1.702 17.289 1.80263 17.117L2.17409 16.4816C2.3696 16.1717 2.61628 16.2815 2.81178 16.5322C3.20222 16.9802 3.30572 17.1021 3.71974 17.4914C3.98712 17.7679 3.92157 17.799 3.75251 18.0698L3.51963 18.4338L2.37535 20.294C1.41909 21.8414 3.70939 23.257 4.66564 21.7097L5.65524 20.0634C5.84327 19.7276 6.05545 19.4165 6.32169 19.6408L7.26414 20.5079C7.68045 20.8219 7.45792 21.0835 7.35384 21.3267Z" fill="black"/>
<path d="M21.9098 17.3764C21.7 17.6805 21.6333 17.7846 21.8339 18.0738L22.0076 18.3476L23.3416 20.2313C24.3824 21.6947 22.2267 23.2432 21.1859 21.7798L14.8291 12.2915C14.6198 12.004 14.411 11.5313 14.0821 12.004L13.3041 13.0384C12.977 13.5611 13.092 13.5789 13.3772 13.9809C14.5692 15.7261 18.6374 21.8097 18.9744 22.268C19.3412 22.7666 19.6822 23.3381 20.1112 23.7838C20.7673 24.4657 21.8972 24.7038 22.8011 24.5273C23.77 24.3381 24.6297 23.705 25.1616 22.8775C25.8033 21.8793 25.9689 20.4636 25.2921 19.4395C24.8672 18.7972 24.4347 18.1595 24.0064 17.5195L23.4313 16.7226C23.1559 16.3246 22.9989 16.1021 22.5832 16.5903C22.5832 16.5903 22.0277 17.2061 21.9098 17.3764Z" fill="black"/>
<path d="M11.919 8.26078L11.5441 8.74207L11.037 9.33779C10.662 9.75985 10.6017 9.4988 9.922 9.16529C9.90877 9.16069 9.89497 9.15551 9.88175 9.15091C6.33389 7.91405 3.40591 13.1168 6.28732 15.4272L12.1755 20.5604L12.5579 20.8933L12.869 20.6075L14.7964 18.8376C14.9482 18.6968 15.2576 18.5047 15.5301 18.8083L16.4111 19.9814C16.6445 20.2436 16.675 20.5144 16.3329 20.776L13.2278 23.4924C12.6516 23.8943 12.2629 23.9616 11.6735 23.4924L4.94983 17.3673C4.26326 16.7986 3.67444 16.1063 3.27595 15.3065C2.71359 14.1771 2.57213 12.8833 2.83779 11.6528C3.09712 10.4522 3.71987 9.33779 4.57549 8.45974C5.43169 7.58112 6.534 6.93307 7.74096 6.68524C8.92779 6.44143 10.3648 6.57196 11.4722 7.24128C11.547 7.28671 11.838 7.48911 11.838 7.48911C12.1893 7.78352 12.1623 7.94913 11.919 8.26078Z" fill="black"/>
<path d="M20.079 17.8423C21.1014 17.0103 21.9915 16.2087 22.5619 14.9845C22.9392 14.1749 23.1352 13.1416 23.0243 12.2555C22.8155 10.5896 21.9892 9.12335 20.738 8.04635C19.5023 6.98257 17.8669 6.38167 16.2316 6.6157C13.7464 6.97222 12.2645 8.96637 10.9892 10.9174C10.2169 12.0985 9.22788 13.6079 8.40561 14.8649C8.20263 15.1875 8.22103 15.3864 8.46426 15.6245L9.29689 16.3381C9.80808 16.7412 10.087 16.2823 10.2296 16.0903L10.4101 15.8372C11.5205 14.0696 12.6975 12.5171 13.9534 10.7369C14.7262 9.64144 15.6433 8.87092 17.0631 8.93532C18.262 8.98937 19.1636 9.64144 19.8358 10.5275C20.4827 11.3809 20.6454 12.5384 20.5833 13.3906C20.5132 14.3554 19.9485 14.8948 19.2769 15.6216C19.1619 15.7464 19.0164 15.8683 18.8807 15.9724C18.5639 16.23 18.4788 16.3013 18.8163 16.7998L19.4546 17.7429C19.7541 18.139 19.9284 17.9228 20.079 17.8423Z" fill="black"/>
<path d="M200.357 1.4134V2.5535H199.112V6H197.841V2.5535H196.596V1.4134H200.357ZM206.555 6H205.278L204.924 3.35943L203.705 6.0131H203.332L202.119 3.36598L201.766 6H200.481L201.176 1.4134H202.44L203.522 3.90982L204.609 1.4134H205.867L206.555 6Z" fill="black"/>
</svg>
